<svg width="66" height="70" viewBox="0 0 66 70" fill="none" xmlns="http://www.w3.org/2000/svg">
<g id="Icon/Fill/home">
<path id="Mask" fill-rule="evenodd" clip-rule="evenodd" d="M34.9259 6.66697L55.6974 29.4575C56.6835 30.5444 57.2494 32.0591 57.2494 33.6172V57.83C57.2494 61.0185 54.9672 63.6114 52.1623 63.6114H43.7771V37.5949C43.7771 35.9992 42.5727 34.7042 41.0827 34.7042H24.916C23.426 34.7042 22.2216 35.9992 22.2216 37.5949V63.6114H13.8392C11.0342 63.6114 8.74936 61.0185 8.74936 57.83V33.6172C8.74936 32.0591 9.31519 30.5444 10.2987 29.4604L31.0728 6.66697C32.0886 5.55404 33.9101 5.55404 34.9259 6.66697ZM38.3888 60.7219H27.611V40.4868H38.3888V60.7219Z" fill="#343C44"/>
</g>
</svg>
