<svg width="74" height="74" viewBox="0 0 74 74" fill="none" xmlns="http://www.w3.org/2000/svg">
<g id="Icon/Outline/calendar">
<path id="Mask" fill-rule="evenodd" clip-rule="evenodd" d="M21.5833 49.3333C21.5833 47.6375 22.9708 46.25 24.6667 46.25C26.3625 46.25 27.75 47.6375 27.75 49.3333C27.75 51.0292 26.3625 52.4167 24.6667 52.4167C22.9708 52.4167 21.5833 51.0292 21.5833 49.3333ZM37 46.25H49.3333C51.0292 46.25 52.4167 47.6375 52.4167 49.3333C52.4167 51.0292 51.0292 52.4167 49.3333 52.4167H37C35.3042 52.4167 33.9167 51.0292 33.9167 49.3333C33.9167 47.6375 35.3042 46.25 37 46.25ZM55.5 61.6667H18.5C16.8011 61.6667 15.4167 60.2822 15.4167 58.5833V40.0833H58.5833V58.5833C58.5833 60.2822 57.1989 61.6667 55.5 61.6667ZM18.5 18.5H21.5833V21.5833C21.5833 23.2792 22.9708 24.6667 24.6667 24.6667C26.3625 24.6667 27.75 23.2792 27.75 21.5833V18.5H46.25V21.5833C46.25 23.2792 47.6375 24.6667 49.3333 24.6667C51.0292 24.6667 52.4167 23.2792 52.4167 21.5833V18.5H55.5C57.1989 18.5 58.5833 19.8844 58.5833 21.5833V33.9167H15.4167V21.5833C15.4167 19.8844 16.8011 18.5 18.5 18.5ZM55.5 12.3333H52.4167V9.24999C52.4167 7.55416 51.0292 6.16666 49.3333 6.16666C47.6375 6.16666 46.25 7.55416 46.25 9.24999V12.3333H27.75V9.24999C27.75 7.55416 26.3625 6.16666 24.6667 6.16666C22.9708 6.16666 21.5833 7.55416 21.5833 9.24999V12.3333H18.5C13.4002 12.3333 9.25 16.4835 9.25 21.5833V58.5833C9.25 63.6832 13.4002 67.8333 18.5 67.8333H55.5C60.5998 67.8333 64.75 63.6832 64.75 58.5833V21.5833C64.75 16.4835 60.5998 12.3333 55.5 12.3333Z" fill="#343C44"/>
</g>
</svg>
