<svg width="86" height="86" viewBox="0 0 86 86" fill="none" xmlns="http://www.w3.org/2000/svg">
<g id="Icon/Outline/message-square">
<path id="Mask" fill-rule="evenodd" clip-rule="evenodd" d="M25.0833 35.8333C25.0833 33.8553 26.6887 32.25 28.6667 32.25C30.6447 32.25 32.25 33.8553 32.25 35.8333C32.25 37.8113 30.6447 39.4167 28.6667 39.4167C26.6887 39.4167 25.0833 37.8113 25.0833 35.8333ZM43 32.25C41.022 32.25 39.4167 33.8553 39.4167 35.8333C39.4167 37.8113 41.022 39.4167 43 39.4167C44.978 39.4167 46.5833 37.8113 46.5833 35.8333C46.5833 33.8553 44.978 32.25 43 32.25ZM57.3333 32.25C55.3553 32.25 53.75 33.8553 53.75 35.8333C53.75 37.8113 55.3553 39.4167 57.3333 39.4167C59.3113 39.4167 60.9167 37.8113 60.9167 35.8333C60.9167 33.8553 59.3113 32.25 57.3333 32.25ZM71.6667 53.75C71.6667 55.7244 70.0578 57.3333 68.0833 57.3333H30.6518C28.7061 57.3333 26.7926 57.8637 25.1192 58.867L14.3333 65.3385V17.9167C14.3333 15.9423 15.9423 14.3333 17.9167 14.3333H68.0833C70.0578 14.3333 71.6667 15.9423 71.6667 17.9167V53.75ZM68.0833 7.16667H17.9167C11.9898 7.16667 7.16667 11.9898 7.16667 17.9167V71.6667C7.16667 72.9567 7.86184 74.1499 8.98342 74.7842C9.53167 75.0959 10.1408 75.25 10.75 75.25C11.3878 75.25 12.0257 75.0816 12.5954 74.7376L28.8064 65.0124C29.3654 64.6756 30.0033 64.5 30.6518 64.5H68.0833C74.0102 64.5 78.8333 59.6768 78.8333 53.75V17.9167C78.8333 11.9898 74.0102 7.16667 68.0833 7.16667Z" fill="#343C44"/>
</g>
</svg>
